<?xml version="1.0" standalone="no"?>
<!DOCTYPE svg PUBLIC "-//W3C//DTD SVG 20010904//EN"
 "http://www.w3.org/TR/2001/REC-SVG-20010904/DTD/svg10.dtd">
<svg version="1.0" xmlns="http://www.w3.org/2000/svg"
 width="225.000000pt" height="225.000000pt" viewBox="0 0 225.000000 225.000000"
 preserveAspectRatio="xMidYMid meet">

<g transform="translate(0.000000,225.000000) scale(0.100000,-0.100000)"
fill="#000000" stroke="none">
<path d="M945 2235 c-224 -34 -456 -154 -620 -320 -277 -281 -386 -694 -285
-1078 31 -119 64 -187 91 -187 12 0 94 41 181 91 l160 92 -5 41 c-4 23 -13 66
-22 96 -19 70 -19 235 0 320 9 36 34 103 57 150 34 68 60 103 133 176 74 75
105 99 175 133 47 22 121 50 164 60 44 11 83 26 88 33 4 7 7 96 5 197 -3 222
2 215 -122 196z m35 -209 l0 -124 -52 -12 c-226 -53 -443 -244 -535 -470 -53
-132 -69 -326 -38 -459 9 -36 14 -70 11 -77 -6 -17 -199 -125 -207 -116 -4 4
-16 37 -28 74 -71 232 -45 515 68 743 107 217 263 370 486 477 78 37 233 86
278 88 15 0 17 -12 17 -124z"/>
<path d="M1200 2233 c-19 -13 -20 -25 -20 -196 0 -100 4 -188 9 -195 4 -7 43
-22 87 -33 43 -10 117 -38 164 -60 70 -34 101 -58 175 -133 145 -146 205 -289
205 -491 0 -61 -6 -122 -15 -155 -9 -30 -18 -73 -22 -96 l-5 -41 160 -92 c87
-50 169 -91 181 -91 42 0 103 182 123 369 48 453 -200 904 -612 1111 -115 57
-226 90 -382 113 -15 2 -37 -2 -48 -10z"/>
<path d="M1110 1565 c0 -19 -7 -26 -27 -31 -99 -21 -153 -63 -172 -129 -34
-122 16 -213 144 -263 l50 -20 3 -151 c2 -117 0 -151 -10 -151 -36 0 -89 24
-126 56 -48 40 -72 41 -86 1 -8 -22 -6 -33 10 -55 24 -33 117 -82 155 -82 42
0 59 -10 59 -35 0 -27 26 -40 46 -24 8 6 14 21 14 34 0 17 9 25 43 34 98 29
147 99 147 211 0 110 -44 175 -144 216 l-46 19 0 133 0 132 28 -6 c15 -4 42
-13 61 -20 60 -25 81 -15 81 37 0 23 -61 54 -127 65 -33 5 -43 11 -47 30 -9
35 -56 34 -56 -1z m-4 -342 c-2 -2 -22 5 -45 16 -46 24 -71 64 -71 114 0 44
25 74 75 91 l40 14 3 -115 c1 -64 1 -118 -2 -120z m101 -144 c18 -11 41 -35
50 -52 22 -42 21 -115 -1 -149 -14 -22 -70 -58 -90 -58 -3 0 -6 63 -6 140 0
77 3 140 6 140 4 0 22 -9 41 -21z"/>
<path d="M375 644 c-82 -47 -159 -94 -170 -105 -19 -19 -19 -20 0 -55 28 -52
165 -195 243 -252 202 -150 426 -224 677 -225 249 0 475 75 677 225 78 58 215
200 244 253 l19 36 -26 23 c-24 21 -309 186 -321 186 -3 0 -46 -40 -95 -89
-74 -73 -105 -96 -184 -135 -208 -103 -420 -103 -628 0 -79 39 -110 62 -184
135 -49 49 -92 89 -96 89 -3 0 -73 -39 -156 -86z m167 -45 c24 -39 159 -139
241 -178 126 -61 191 -75 342 -75 142 0 210 14 321 64 87 39 163 91 230 158
l57 56 41 -24 c23 -12 71 -40 109 -62 l67 -39 -47 -56 c-60 -69 -172 -160
-261 -211 -340 -197 -760 -184 -1090 34 -91 61 -259 221 -245 235 16 15 198
118 210 119 7 0 18 -9 25 -21z"/>
</g>
</svg>
